<svg width="55" height="13" viewBox="0 0 55 13" fill="none" xmlns="http://www.w3.org/2000/svg">
<path d="M2.90839 4.05527H4.50439V10.0553H2.90839V4.05527ZM9.41239 3.95927C9.78839 3.95927 10.1044 4.03527 10.3604 4.18727C10.6244 4.33127 10.8364 4.52327 10.9964 4.76327C11.1564 5.00327 11.2724 5.27527 11.3444 5.57927C11.4164 5.87527 11.4524 6.17527 11.4524 6.47927V10.0553H9.85639L9.86839 6.47927C9.86839 6.35127 9.84439 6.23127 9.79639 6.11927C9.74839 6.00727 9.68039 5.90727 9.59239 5.81927C9.51239 5.73127 9.41239 5.66327 9.29239 5.61527C9.18039 5.55927 9.06039 5.53127 8.93239 5.53127C8.66839 5.53127 8.44439 5.62727 8.26039 5.81927C8.07639 6.00327 7.98439 6.22327 7.98439 6.47927V10.0553H6.38839V6.47927C6.38839 6.35127 6.36439 6.23127 6.31639 6.11927C6.26839 6.00727 6.20039 5.90727 6.11239 5.81927C6.02439 5.73127 5.92039 5.66327 5.80039 5.61527C5.68839 5.56727 5.56039 5.54327 5.41639 5.54327C5.40839 5.54327 5.37239 5.48327 5.30839 5.36327C5.24439 5.24327 5.17239 5.11127 5.09239 4.96727C5.00439 4.79927 4.89639 4.60727 4.76839 4.39127L4.78039 4.36727C5.12439 4.09527 5.50439 3.95927 5.92039 3.95927C6.36839 3.95927 6.73239 4.05927 7.01239 4.25927C7.29239 4.45927 7.50839 4.70727 7.66039 5.00327C7.69239 4.94727 7.72439 4.89927 7.75639 4.85927C7.98039 4.56327 8.23239 4.33927 8.51239 4.18727C8.80039 4.03527 9.10039 3.95927 9.41239 3.95927Z" fill="#011638"/>
<path d="M15.1779 3.95927C15.6019 3.95927 16.0019 4.04327 16.3779 4.21127C16.7539 4.37127 17.0819 4.59127 17.3619 4.87127C17.6419 5.15127 17.8619 5.47927 18.0219 5.85527C18.1899 6.23127 18.2739 6.63527 18.2739 7.06727C18.2739 7.29927 18.2499 7.52327 18.2019 7.73927L18.1899 7.76327H15.1419L14.3739 6.53927H16.6539C16.5419 6.20327 16.3539 5.92727 16.0899 5.71127C15.8339 5.49527 15.5299 5.38727 15.1779 5.38727C14.9619 5.38727 14.7579 5.43127 14.5659 5.51927C14.3739 5.60727 14.2059 5.72727 14.0619 5.87927C13.9259 6.02327 13.8179 6.19927 13.7379 6.40727C13.6579 6.60727 13.6179 6.82727 13.6179 7.06727C13.6179 7.25127 13.6539 7.44327 13.7259 7.64327C13.7979 7.83527 13.9019 8.01127 14.0379 8.17127C14.1739 8.33127 14.3379 8.46727 14.5299 8.57927C14.7219 8.68327 14.9379 8.73527 15.1779 8.73527C15.3939 8.73527 15.5899 8.70727 15.7659 8.65127C15.9499 8.58727 16.1219 8.45127 16.2819 8.24327L16.2939 8.23127L16.3179 8.24327L17.7099 8.85527L17.6859 8.87927C17.3979 9.27927 17.0299 9.59127 16.5819 9.81527C16.1419 10.0393 15.6739 10.1513 15.1779 10.1513C14.7459 10.1513 14.3379 10.0713 13.9539 9.91127C13.5779 9.75127 13.2499 9.53127 12.9699 9.25127C12.6899 8.97127 12.4659 8.64327 12.2979 8.26727C12.1379 7.89127 12.0579 7.49127 12.0579 7.06727C12.0579 6.63527 12.1379 6.23127 12.2979 5.85527C12.4659 5.47927 12.6899 5.15127 12.9699 4.87127C13.2499 4.59127 13.5779 4.37127 13.9539 4.21127C14.3379 4.04327 14.7459 3.95927 15.1779 3.95927Z" fill="#011638"/>
<path d="M28.4259 1.55527L25.1909 10.0553H23.5949L23.6069 7.04327C23.6069 6.81927 23.5589 6.60727 23.4629 6.40727C23.3749 6.20727 23.2549 6.03527 23.1029 5.89127C22.9589 5.73927 22.7829 5.62327 22.5749 5.54327C22.3749 5.45527 22.1589 5.41127 21.9269 5.41127C21.6949 5.41127 21.4789 5.45527 21.2789 5.54327C21.0789 5.62327 20.9029 5.73927 20.7509 5.89127C20.6069 6.04327 20.4909 6.21927 20.4029 6.41927C20.3149 6.61927 20.2709 6.83527 20.2709 7.06727C20.2709 7.29927 20.3149 7.51527 20.4029 7.71527C20.4909 7.91527 20.6069 8.09127 20.7509 8.24327C20.9029 8.38727 21.0789 8.50327 21.2789 8.59127C21.4789 8.67927 21.6949 8.72327 21.9269 8.72327C22.0389 8.72327 22.1509 8.71527 22.2629 8.69927C22.3749 8.68327 22.4789 8.65127 22.5749 8.60327H22.5869H22.5989L23.1869 9.68327L23.1749 9.69527C22.7829 9.99927 22.3029 10.1513 21.7349 10.1513C21.3029 10.1513 20.8989 10.0713 20.5229 9.91127C20.1469 9.75127 19.8189 9.53127 19.5389 9.25127C19.2589 8.97127 19.0349 8.64327 18.8669 8.26727C18.7069 7.89127 18.6269 7.49127 18.6269 7.06727C18.6269 6.64327 18.7069 6.24327 18.8669 5.86727C19.0349 5.49127 19.2589 5.16327 19.5389 4.88327C19.8189 4.60327 20.1469 4.38327 20.5229 4.22327C20.8989 4.06327 21.3029 3.98327 21.7349 3.98327C22.5509 3.98327 24.8193 4.25926 24.8193 7.06727L26.9259 1.55527H28.4259Z" fill="#011638"/>
<path d="M33.2028 10L32.5004 8.412H28.436L27.8 9.9H26L29.444 1.5H31.256L29.036 6.912H32.1654L30.8038 3.1987L31.5 1.5L34.723 10H33.2028Z" fill="#0081A7"/>
<path d="M41.107 3.9V9.216C41.083 9.664 40.983 10.08 40.807 10.464C40.631 10.856 40.395 11.192 40.099 11.472C39.811 11.76 39.471 11.984 39.079 12.144C38.687 12.312 38.271 12.396 37.831 12.396C37.239 12.396 36.687 12.248 36.175 11.952C35.671 11.664 35.271 11.268 34.975 10.764L34.963 10.74L34.975 10.728L36.295 10.152C36.375 10.296 36.475 10.42 36.595 10.524C36.723 10.636 36.855 10.724 36.991 10.788C37.135 10.86 37.279 10.912 37.423 10.944C37.575 10.984 37.719 11.004 37.855 11.004C38.063 11.004 38.267 10.96 38.467 10.872C38.667 10.784 38.843 10.656 38.995 10.488C39.155 10.32 39.279 10.12 39.367 9.888C39.463 9.656 39.511 9.396 39.511 9.108V6.912C39.511 6.68 39.463 6.464 39.367 6.264C39.279 6.056 39.155 5.88 38.995 5.736C38.843 5.584 38.663 5.464 38.455 5.376C38.255 5.288 38.039 5.244 37.807 5.244C37.575 5.244 37.355 5.288 37.147 5.376C36.947 5.464 36.771 5.584 36.619 5.736C36.467 5.88 36.347 6.056 36.259 6.264C36.171 6.464 36.127 6.68 36.127 6.912C36.127 7.144 36.171 7.36 36.259 7.56C36.347 7.76 36.467 7.936 36.619 8.088C36.771 8.24 36.947 8.36 37.147 8.448C37.355 8.536 37.575 8.58 37.807 8.58C38.055 8.58 38.271 8.536 38.455 8.448H38.467L38.479 8.46L39.079 9.528L39.067 9.54C38.675 9.86 38.191 10.02 37.615 10.02C37.183 10.02 36.775 9.94 36.391 9.78C36.007 9.612 35.675 9.388 35.395 9.108C35.115 8.828 34.891 8.5 34.723 8.124C34.563 7.74 34.483 7.336 34.483 6.912C34.483 6.48 34.563 6.076 34.723 5.7C34.891 5.324 35.115 4.996 35.395 4.716C35.675 4.436 36.007 4.216 36.391 4.056C36.775 3.888 37.183 3.804 37.615 3.804C38.431 3.804 39.063 4.112 39.511 4.728V3.9H41.107Z" fill="#0081A7"/>
<path d="M41.8217 9.9V3.9H43.4177V9.9H41.8217ZM41.8217 1.5H43.4177V2.904H41.8217V1.5Z" fill="#0081A7"/>
<path d="M44.154 1.5H45.738V9.9H44.142L44.154 1.5Z" fill="#0081A7"/>
<path d="M49.4623 3.804C49.8863 3.804 50.2863 3.888 50.6623 4.056C51.0383 4.216 51.3663 4.436 51.6463 4.716C51.9263 4.996 52.1463 5.324 52.3063 5.7C52.4743 6.076 52.5583 6.48 52.5583 6.912C52.5583 7.144 52.5343 7.368 52.4863 7.584L52.4743 7.608H49.4263L48.6583 6.384H50.9383C50.8263 6.048 50.6383 5.772 50.3743 5.556C50.1183 5.34 49.8143 5.232 49.4623 5.232C49.2463 5.232 49.0423 5.276 48.8503 5.364C48.6583 5.452 48.4903 5.572 48.3463 5.724C48.2103 5.868 48.1023 6.044 48.0223 6.252C47.9423 6.452 47.9023 6.672 47.9023 6.912C47.9023 7.096 47.9383 7.288 48.0103 7.488C48.0823 7.68 48.1863 7.856 48.3223 8.016C48.4583 8.176 48.6223 8.312 48.8143 8.424C49.0063 8.528 49.2223 8.58 49.4623 8.58C49.6783 8.58 49.8743 8.552 50.0503 8.496C50.2343 8.432 50.4063 8.296 50.5663 8.088L50.5783 8.076L50.6023 8.088L51.9943 8.7L51.9703 8.724C51.6823 9.124 51.3143 9.436 50.8663 9.66C50.4263 9.884 49.9583 9.996 49.4623 9.996C49.0303 9.996 48.6223 9.916 48.2383 9.756C47.8623 9.596 47.5343 9.376 47.2543 9.096C46.9743 8.816 46.7503 8.488 46.5823 8.112C46.4223 7.736 46.3423 7.336 46.3423 6.912C46.3423 6.48 46.4223 6.076 46.5823 5.7C46.7503 5.324 46.9743 4.996 47.2543 4.716C47.5343 4.436 47.8623 4.216 48.2383 4.056C48.6223 3.888 49.0303 3.804 49.4623 3.804Z" fill="#0081A7"/>
</svg>
