<svg width="54" height="13" viewBox="0 0 54 13" fill="none" xmlns="http://www.w3.org/2000/svg">
<path d="M2.45502 4.02621H4.05102V10.0262H2.45502V4.02621ZM8.95902 3.93021C9.33502 3.93021 9.65102 4.00621 9.90702 4.15821C10.171 4.30221 10.383 4.49421 10.543 4.73421C10.703 4.97421 10.819 5.24621 10.891 5.55021C10.963 5.84621 10.999 6.14621 10.999 6.45021V10.0262H9.40302L9.41502 6.45021C9.41502 6.32221 9.39102 6.20221 9.34302 6.09021C9.29502 5.97821 9.22702 5.87821 9.13902 5.79021C9.05902 5.70221 8.95902 5.63421 8.83902 5.58621C8.72702 5.53021 8.60702 5.50221 8.47902 5.50221C8.21502 5.50221 7.99102 5.59821 7.80702 5.79021C7.62302 5.97421 7.53102 6.19421 7.53102 6.45021V10.0262H5.93502V6.45021C5.93502 6.32221 5.91102 6.20221 5.86302 6.09021C5.81502 5.97821 5.74702 5.87821 5.65902 5.79021C5.57102 5.70221 5.46702 5.63421 5.34702 5.58621C5.23502 5.53821 5.10702 5.51421 4.96302 5.51421C4.95502 5.51421 4.91902 5.45421 4.85502 5.33421C4.79102 5.21421 4.71902 5.08221 4.63902 4.93821C4.55102 4.77021 4.44302 4.57821 4.31502 4.36221L4.32702 4.33821C4.67102 4.06621 5.05102 3.93021 5.46702 3.93021C5.91502 3.93021 6.27902 4.03021 6.55902 4.23021C6.83902 4.43021 7.05502 4.67821 7.20702 4.97421C7.23902 4.91821 7.27102 4.87021 7.30302 4.83021C7.52702 4.53421 7.77902 4.31021 8.05902 4.15821C8.34702 4.00621 8.64702 3.93021 8.95902 3.93021Z" fill="#011638"/>
<path d="M14.7245 3.93021C15.1485 3.93021 15.5485 4.01421 15.9245 4.18221C16.3005 4.34221 16.6285 4.56221 16.9085 4.84221C17.1885 5.12221 17.4085 5.45021 17.5685 5.82621C17.7365 6.20221 17.8205 6.60621 17.8205 7.03821C17.8205 7.27021 17.7965 7.49421 17.7485 7.71021L17.7365 7.73421H14.6885L13.9205 6.51021H16.2005C16.0885 6.17421 15.9005 5.89821 15.6365 5.68221C15.3805 5.46621 15.0765 5.35821 14.7245 5.35821C14.5085 5.35821 14.3045 5.40221 14.1125 5.49021C13.9205 5.57821 13.7525 5.69821 13.6085 5.85021C13.4725 5.99421 13.3645 6.17021 13.2845 6.37821C13.2045 6.57821 13.1645 6.79821 13.1645 7.03821C13.1645 7.22221 13.2005 7.41421 13.2725 7.61421C13.3445 7.80621 13.4485 7.98221 13.5845 8.14221C13.7205 8.30221 13.8845 8.43821 14.0765 8.55021C14.2685 8.65421 14.4845 8.70621 14.7245 8.70621C14.9405 8.70621 15.1365 8.67821 15.3125 8.62221C15.4965 8.55821 15.6685 8.42221 15.8285 8.21421L15.8405 8.20221L15.8645 8.21421L17.2565 8.82621L17.2325 8.85021C16.9445 9.25021 16.5765 9.56221 16.1285 9.78621C15.6885 10.0102 15.2205 10.1222 14.7245 10.1222C14.2925 10.1222 13.8845 10.0422 13.5005 9.88221C13.1245 9.72221 12.7965 9.50221 12.5165 9.22221C12.2365 8.94221 12.0125 8.61421 11.8445 8.23821C11.6845 7.86221 11.6045 7.46221 11.6045 7.03821C11.6045 6.60621 11.6845 6.20221 11.8445 5.82621C12.0125 5.45021 12.2365 5.12221 12.5165 4.84221C12.7965 4.56221 13.1245 4.34221 13.5005 4.18221C13.8845 4.01421 14.2925 3.93021 14.7245 3.93021Z" fill="#011638"/>
<path d="M27.9726 1.5262L24.7375 10.0262H23.1415L23.1535 7.01421C23.1535 6.79021 23.1055 6.57821 23.0095 6.37821C22.9215 6.17821 22.8015 6.00621 22.6495 5.86221C22.5055 5.71021 22.3295 5.59421 22.1215 5.51421C21.9215 5.42621 21.7055 5.38221 21.4735 5.38221C21.2415 5.38221 21.0255 5.42621 20.8255 5.51421C20.6255 5.59421 20.4495 5.71021 20.2975 5.86221C20.1535 6.01421 20.0375 6.19021 19.9495 6.39021C19.8615 6.59021 19.8175 6.80621 19.8175 7.03821C19.8175 7.27021 19.8615 7.48621 19.9495 7.68621C20.0375 7.88621 20.1535 8.06221 20.2975 8.21421C20.4495 8.35821 20.6255 8.47421 20.8255 8.56221C21.0255 8.65021 21.2415 8.69421 21.4735 8.69421C21.5855 8.69421 21.6975 8.68621 21.8095 8.67021C21.9215 8.65421 22.0255 8.62221 22.1215 8.57421H22.1335H22.1455L22.7335 9.65421L22.7215 9.66621C22.3295 9.97021 21.8495 10.1222 21.2815 10.1222C20.8495 10.1222 20.4455 10.0422 20.0695 9.88221C19.6935 9.72221 19.3655 9.50221 19.0855 9.22221C18.8055 8.94221 18.5815 8.61421 18.4135 8.23821C18.2535 7.86221 18.1735 7.46221 18.1735 7.03821C18.1735 6.61421 18.2535 6.21421 18.4135 5.83821C18.5815 5.46221 18.8055 5.13421 19.0855 4.85421C19.3655 4.57421 19.6935 4.35421 20.0695 4.19421C20.4455 4.03421 20.8495 3.95421 21.2815 3.95421C22.0975 3.95421 24.3659 4.23019 24.3659 7.03821L26.4726 1.5262H27.9726Z" fill="#011638"/>
<path d="M32.7495 9.97093L32.047 8.38293H27.9826L27.3466 9.87093H25.5466L28.9906 1.47093H30.8026L28.5826 6.88293H31.712L30.3504 3.16963L31.0466 1.47093L34.2696 9.97093H32.7495Z" fill="white"/>
<path d="M40.6536 3.87093V9.18693C40.6296 9.63493 40.5296 10.0509 40.3536 10.4349C40.1776 10.8269 39.9416 11.1629 39.6456 11.4429C39.3576 11.7309 39.0176 11.9549 38.6256 12.1149C38.2336 12.2829 37.8176 12.3669 37.3776 12.3669C36.7856 12.3669 36.2336 12.2189 35.7216 11.9229C35.2176 11.6349 34.8176 11.2389 34.5216 10.7349L34.5096 10.7109L34.5216 10.6989L35.8416 10.1229C35.9216 10.2669 36.0216 10.3909 36.1416 10.4949C36.2696 10.6069 36.4016 10.6949 36.5376 10.7589C36.6816 10.8309 36.8256 10.8829 36.9696 10.9149C37.1216 10.9549 37.2656 10.9749 37.4016 10.9749C37.6096 10.9749 37.8136 10.9309 38.0136 10.8429C38.2136 10.7549 38.3896 10.6269 38.5416 10.4589C38.7016 10.2909 38.8256 10.0909 38.9136 9.85893C39.0096 9.62693 39.0576 9.36693 39.0576 9.07893V6.88293C39.0576 6.65093 39.0096 6.43493 38.9136 6.23493C38.8256 6.02693 38.7016 5.85093 38.5416 5.70693C38.3896 5.55493 38.2096 5.43493 38.0016 5.34693C37.8016 5.25893 37.5856 5.21493 37.3536 5.21493C37.1216 5.21493 36.9016 5.25893 36.6936 5.34693C36.4936 5.43493 36.3176 5.55493 36.1656 5.70693C36.0136 5.85093 35.8936 6.02693 35.8056 6.23493C35.7176 6.43493 35.6736 6.65093 35.6736 6.88293C35.6736 7.11493 35.7176 7.33093 35.8056 7.53093C35.8936 7.73093 36.0136 7.90693 36.1656 8.05893C36.3176 8.21093 36.4936 8.33093 36.6936 8.41893C36.9016 8.50693 37.1216 8.55093 37.3536 8.55093C37.6016 8.55093 37.8176 8.50693 38.0016 8.41893H38.0136L38.0256 8.43093L38.6256 9.49893L38.6136 9.51093C38.2216 9.83093 37.7376 9.99093 37.1616 9.99093C36.7296 9.99093 36.3216 9.91093 35.9376 9.75093C35.5536 9.58293 35.2216 9.35893 34.9416 9.07893C34.6616 8.79893 34.4376 8.47093 34.2696 8.09493C34.1096 7.71093 34.0296 7.30693 34.0296 6.88293C34.0296 6.45093 34.1096 6.04693 34.2696 5.67093C34.4376 5.29493 34.6616 4.96693 34.9416 4.68693C35.2216 4.40693 35.5536 4.18693 35.9376 4.02693C36.3216 3.85893 36.7296 3.77493 37.1616 3.77493C37.9776 3.77493 38.6096 4.08293 39.0576 4.69893V3.87093H40.6536Z" fill="white"/>
<path d="M41.3684 9.87093V3.87093H42.9643V9.87093H41.3684ZM41.3684 1.47093H42.9643V2.87493H41.3684V1.47093Z" fill="white"/>
<path d="M43.7007 1.47093H45.2847V9.87093H43.6887L43.7007 1.47093Z" fill="white"/>
<path d="M49.009 3.77493C49.433 3.77493 49.833 3.85893 50.209 4.02693C50.585 4.18693 50.913 4.40693 51.193 4.68693C51.473 4.96693 51.693 5.29493 51.853 5.67093C52.021 6.04693 52.105 6.45093 52.105 6.88293C52.105 7.11493 52.081 7.33893 52.033 7.55493L52.021 7.57893H48.973L48.205 6.35493H50.485C50.373 6.01893 50.185 5.74293 49.921 5.52693C49.665 5.31093 49.361 5.20293 49.009 5.20293C48.793 5.20293 48.589 5.24693 48.397 5.33493C48.205 5.42293 48.037 5.54293 47.893 5.69493C47.757 5.83893 47.649 6.01493 47.569 6.22293C47.489 6.42293 47.449 6.64293 47.449 6.88293C47.449 7.06693 47.485 7.25893 47.557 7.45893C47.629 7.65093 47.733 7.82693 47.869 7.98693C48.005 8.14693 48.169 8.28293 48.361 8.39493C48.553 8.49893 48.769 8.55093 49.009 8.55093C49.225 8.55093 49.421 8.52293 49.597 8.46693C49.781 8.40293 49.953 8.26693 50.113 8.05893L50.125 8.04693L50.149 8.05893L51.541 8.67093L51.517 8.69493C51.229 9.09493 50.861 9.40693 50.413 9.63093C49.973 9.85493 49.505 9.96693 49.009 9.96693C48.577 9.96693 48.169 9.88693 47.785 9.72693C47.409 9.56693 47.081 9.34693 46.801 9.06693C46.521 8.78693 46.297 8.45893 46.129 8.08293C45.969 7.70693 45.889 7.30693 45.889 6.88293C45.889 6.45093 45.969 6.04693 46.129 5.67093C46.297 5.29493 46.521 4.96693 46.801 4.68693C47.081 4.40693 47.409 4.18693 47.785 4.02693C48.169 3.85893 48.577 3.77493 49.009 3.77493Z" fill="white"/>
</svg>
