<?xml version="1.0" encoding="UTF-8"?>
<svg width="948px" height="209px" viewBox="0 0 948 209" version="1.1" xmlns="http://www.w3.org/2000/svg" xmlns:xlink="http://www.w3.org/1999/xlink">
    <title>dr_salus_logo copy 2</title>
    <g id="Page-1" stroke="none" stroke-width="1" fill="none" fill-rule="evenodd">
        <g id="dr_salus_logo-copy-2" transform="translate(0.000000, 0.487663)">
            <text id="DR-SALUS" font-family="Futura-Medium, Futura" font-size="160" font-weight="400">
                <tspan x="200.287254" y="166" fill="#E1260D">DR </tspan>
                <tspan x="462.162254" y="166" letter-spacing="-1.248" fill="#FFFFFF">S</tspan>
                <tspan x="552.945504" y="166" fill="#FFFFFF">A</tspan>
                <tspan x="671.461129" y="166" letter-spacing="-3.616" fill="#FFFFFF">L</tspan>
                <tspan x="735.110754" y="166" fill="#FFFFFF">US</tspan>
            </text>
            <g id="Group-31" transform="translate(-0.000000, 33.512337)">
                <path d="M94.160254,29.2932171 C64.490254,28.3052171 65.495254,58.4642171 65.495254,58.4642171 C65.495254,58.4642171 36.029254,51.9552171 31.569254,81.3052171 C27.109254,110.655217 65.141254,124.911217 113.552254,116.297217 C130.514254,66.6492171 123.830254,30.2812171 94.160254,29.2932171" id="Fill-11" fill="#D70E0E"></path>
                <path d="M127.558854,145.078517 C124.404854,145.361517 49.970854,151.777517 20.766854,131.038517 C6.91185402,121.198517 -0.642145976,107.189517 0.0428540243,92.6045171 C0.714854024,78.3005171 9.20385402,65.0935171 22.751854,57.2705171 L25.435854,61.9195171 C13.479854,68.8255171 5.99185402,80.3885171 5.40585402,92.8565171 C4.79885402,105.766517 11.357854,117.772517 23.874854,126.660517 C51.467854,146.256517 126.325854,139.799517 127.078854,139.732517 L127.558854,145.078517 Z" id="Fill-13" fill="#FFFFFF"></path>
                <path d="M23.875254,126.661017 C11.358254,117.772017 4.79825402,105.766017 5.40525402,92.8560171 C5.99225402,80.3890171 13.479254,68.8250171 25.435254,61.9200171 L23.768254,59.0310171 C11.272254,66.5350171 3.45525402,78.8950171 2.82725402,92.2750171 C2.17525402,106.177017 9.37425402,119.529017 22.580254,128.907017 C50.415254,148.674017 121.360254,142.559017 124.367254,142.289017 L124.157254,139.952017 C110.085254,140.922017 48.373254,144.059017 23.875254,126.661017" id="Fill-15" fill="#FFFFFF"></path>
                <path d="M139.283254,135.335717 C140.139254,132.286717 160.073254,60.2847171 145.030254,27.7787171 C137.893254,12.3557171 125.504254,2.36571712 111.039254,0.368717115 C96.854254,-1.59028288 82.317254,4.33771712 72.146254,16.2247171 L76.225254,19.7147171 C85.203254,9.22471712 97.941254,3.98071712 110.306254,5.68671712 C123.108254,7.45371712 133.711254,16.0997171 140.158254,30.0327171 C154.371254,60.7467171 134.319254,133.156717 134.115254,133.885717 L139.283254,135.335717 Z" id="Fill-17" fill="#FFFFFF"></path>
                <path d="M140.157954,30.0327171 C133.710954,16.0997171 123.108954,7.45371712 110.305954,5.68671712 C97.940954,3.98071712 85.202954,9.22471712 76.224954,19.7147171 L73.690954,17.5467171 C83.354954,6.63571712 96.936954,1.21371712 110.205954,3.04571712 C123.992954,4.94971712 135.800954,14.4707171 142.602954,29.1707171 C156.940954,60.1537171 137.940954,128.780717 137.125954,131.686717 L134.865954,131.052717 C138.395954,117.396717 152.776954,57.3017171 140.157954,30.0327171" id="Fill-19" fill="#FFFFFF"></path>
                <path d="M136.027254,70.8815171 C133.272254,88.2995171 126.451254,131.389517 126.361254,131.711517 C126.028254,131.740517 82.418254,130.557517 64.790254,130.078517 C60.493254,129.961517 56.657254,132.733517 55.412254,136.848517 C53.614254,142.788517 57.868254,148.836517 64.067254,149.134517 C81.827254,149.990517 114.146254,151.362517 127.392254,150.734517 L137.478254,162.871517 C141.489254,167.698517 148.654254,168.360517 153.482254,164.348517 C158.310254,160.337517 158.971254,153.171517 154.959254,148.344517 L144.874254,136.207517 C147.916254,123.300517 152.484254,91.2765171 154.894254,73.6595171 C155.735254,67.5105171 150.568254,62.2215171 144.399254,62.9015171 C140.127254,63.3725171 136.699254,66.6355171 136.027254,70.8815171" id="Fill-21" fill="#FFFFFF"></path>
                <path d="M15.231354,57.5201171 L19.370354,54.0811171 C22.371354,51.5871171 26.825354,51.9981171 29.318354,54.9991171 C31.812354,58.0001171 31.401354,62.4541171 28.400354,64.9481171 L24.261354,68.3871171 C21.260354,70.8811171 16.806354,70.4701171 14.313354,67.4691171 C11.819354,64.4681171 12.230354,60.0141171 15.231354,57.5201171" id="Fill-23" fill="#FFFFFF"></path>
                <path d="M19.369954,54.0809171 L15.230954,57.5199171 C12.230954,60.0139171 11.818954,64.4679171 14.312954,67.4689171 L29.318954,54.9989171 C26.824954,51.9979171 22.370954,51.5869171 19.369954,54.0809171" id="Fill-25" fill="#FFFFFF"></path>
                <path d="M69.629154,12.3168171 L73.768154,8.87781712 C76.769154,6.38381712 81.223154,6.79481712 83.716154,9.79581712 C86.210154,12.7968171 85.799154,17.2508171 82.798154,19.7448171 L78.659154,23.1838171 C75.658154,25.6778171 71.204154,25.2668171 68.711154,22.2658171 C66.217154,19.2648171 66.628154,14.8108171 69.629154,12.3168171" id="Fill-27" fill="#FFFFFF"></path>
                <path d="M73.767854,8.87751712 L69.628854,12.3165171 C66.627854,14.8105171 66.216854,19.2645171 68.710854,22.2655171 L83.716854,9.79651712 C81.222854,6.79551712 76.768854,6.38351712 73.767854,8.87751712" id="Fill-29" fill="#FFFFFF"></path>
            </g>
        </g>
    </g>
</svg>