<?xml version="1.0" encoding="UTF-8"?>
<svg width="948px" height="209px" viewBox="0 0 948 209" version="1.1" xmlns="http://www.w3.org/2000/svg" xmlns:xlink="http://www.w3.org/1999/xlink">
    <title>Group</title>
    <g id="Page-1" stroke="none" stroke-width="1" fill="none" fill-rule="evenodd">
        <g id="Group" transform="translate(0.000000, 0.487663)">
            <path d="M94.160254,62.8055538 C64.490254,61.8175538 65.495254,91.9765538 65.495254,91.9765538 C65.495254,91.9765538 36.029254,85.4675538 31.569254,114.817554 C27.109254,144.167554 65.141254,158.423554 113.552254,149.809554 C130.514254,100.161554 123.830254,63.7935538 94.160254,62.8055538" id="Fill-11" fill="#011638"></path>
            <path d="M127.558854,178.590854 C124.404854,178.873854 49.970854,185.289854 20.766854,164.550854 C6.91185402,154.710854 -0.642145976,140.701854 0.0428540243,126.116854 C0.714854024,111.812854 9.20385402,98.6058538 22.751854,90.7828538 L25.435854,95.4318538 C13.479854,102.337854 5.99185402,113.900854 5.40585402,126.368854 C4.79885402,139.278854 11.357854,151.284854 23.874854,160.172854 C51.467854,179.768854 126.325854,173.311854 127.078854,173.244854 L127.558854,178.590854 Z" id="Fill-13" fill="#FFFFFF"></path>
            <path d="M23.875254,160.173354 C11.358254,151.284354 4.79825402,139.278354 5.40525402,126.368354 C5.99225402,113.901354 13.479254,102.337354 25.435254,95.4323538 L23.768254,92.5433538 C11.272254,100.047354 3.45525402,112.407354 2.82725402,125.787354 C2.17525402,139.689354 9.37425402,153.041354 22.580254,162.419354 C50.415254,182.186354 121.360254,176.071354 124.367254,175.801354 L124.157254,173.464354 C110.085254,174.434354 48.373254,177.571354 23.875254,160.173354" id="Fill-15" fill="#FFFFFF"></path>
            <path d="M139.283254,168.848054 C140.139254,165.799054 160.073254,93.7970538 145.030254,61.2910538 C137.893254,45.8680538 125.504254,35.8780538 111.039254,33.8810538 C96.854254,31.9220538 82.317254,37.8500538 72.146254,49.7370538 L76.225254,53.2270538 C85.203254,42.7370538 97.941254,37.4930538 110.306254,39.1990538 C123.108254,40.9660538 133.711254,49.6120538 140.158254,63.5450538 C154.371254,94.2590538 134.319254,166.669054 134.115254,167.398054 L139.283254,168.848054 Z" id="Fill-17" fill="#FFFFFF"></path>
            <path d="M140.157954,63.5450538 C133.710954,49.6120538 123.108954,40.9660538 110.305954,39.1990538 C97.940954,37.4930538 85.202954,42.7370538 76.224954,53.2270538 L73.690954,51.0590538 C83.354954,40.1480538 96.936954,34.7260538 110.205954,36.5580538 C123.992954,38.4620538 135.800954,47.9830538 142.602954,62.6830538 C156.940954,93.6660538 137.940954,162.293054 137.125954,165.199054 L134.865954,164.565054 C138.395954,150.909054 152.776954,90.8140538 140.157954,63.5450538" id="Fill-19" fill="#FFFFFF"></path>
            <path d="M136.027254,104.393854 C133.272254,121.811854 126.451254,164.901854 126.361254,165.223854 C126.028254,165.252854 82.418254,164.069854 64.790254,163.590854 C60.493254,163.473854 56.657254,166.245854 55.412254,170.360854 C53.614254,176.300854 57.868254,182.348854 64.067254,182.646854 C81.827254,183.502854 114.146254,184.874854 127.392254,184.246854 L137.478254,196.383854 C141.489254,201.210854 148.654254,201.872854 153.482254,197.860854 C158.310254,193.849854 158.971254,186.683854 154.959254,181.856854 L144.874254,169.719854 C147.916254,156.812854 152.484254,124.788854 154.894254,107.171854 C155.735254,101.022854 150.568254,95.7338538 144.399254,96.4138538 C140.127254,96.8848538 136.699254,100.147854 136.027254,104.393854" id="Fill-21" fill="#FFFFFF"></path>
            <path d="M19.370354,87.5934538 C22.371354,85.0994538 26.825354,85.5104538 29.318354,88.5114538 C31.812354,91.5124538 31.401354,95.9664538 28.400354,98.4604538 L24.261354,101.899454 C21.260354,104.393454 16.806354,103.982454 14.313354,100.981454 C11.819354,97.9804538 12.230354,93.5264538 15.231354,91.0324538 L19.370354,87.5934538 Z" id="Fill-23" fill="#FFFFFF"></path>
            <path d="M19.369954,87.5932538 L15.230954,91.0322538 C12.230954,93.5262538 11.818954,97.9802538 14.312954,100.981254 L29.318954,88.5112538 C26.824954,85.5102538 22.370954,85.0992538 19.369954,87.5932538" id="Fill-25" fill="#FFFFFF"></path>
            <path d="M69.629154,45.8291538 L73.768154,42.3901538 C76.769154,39.8961538 81.223154,40.3071538 83.716154,43.3081538 C86.210154,46.3091538 85.799154,50.7631538 82.798154,53.2571538 L78.659154,56.6961538 C75.658154,59.1901538 71.204154,58.7791538 68.711154,55.7781538 C66.217154,52.7771538 66.628154,48.3231538 69.629154,45.8291538" id="Fill-27" fill="#FFFFFF"></path>
            <path d="M73.767854,42.3898538 L69.628854,45.8288538 C66.627854,48.3228538 66.216854,52.7768538 68.710854,55.7778538 L83.716854,43.3088538 C81.222854,40.3078538 76.768854,39.8958538 73.767854,42.3898538" id="Fill-29" fill="#FFFFFF"></path>
            <g id="dr_salus_logo-copy-3" transform="translate(200.287254, 0.000000)" font-family="Futura-Medium, Futura" font-size="160" font-weight="400">
                <text id="DR-SALUS">
                    <tspan x="0" y="166" fill="#011638">DR</tspan>
                    <tspan x="212.5" y="166" fill="#E1260D"> </tspan>
                    <tspan x="261.875" y="166" letter-spacing="-1.248" fill="#FFFFFF">S</tspan>
                    <tspan x="352.65825" y="166" fill="#FFFFFF">A</tspan>
                    <tspan x="471.173875" y="166" letter-spacing="-3.616" fill="#FFFFFF">L</tspan>
                    <tspan x="534.8235" y="166" fill="#FFFFFF">US</tspan>
                </text>
            </g>
        </g>
    </g>
</svg>