<?xml version="1.0" encoding="utf-8"?>
<!-- Generator: Adobe Illustrator 26.0.1, SVG Export Plug-In . SVG Version: 6.00 Build 0)  -->
<svg version="1.1" id="Layer_1" xmlns="http://www.w3.org/2000/svg" xmlns:xlink="http://www.w3.org/1999/xlink" x="0px" y="0px"
	 viewBox="0 0 1058 279" style="enable-background:new 0 0 1058 279;" xml:space="preserve">
<style type="text/css">
	.st0{fill:#E30613;}
	.st1{fill:#1E72B8;}
</style>
<g>
	<path class="st0" d="M328.7,222.5V109.1h23.8c11.4,0,20.4,1.1,27,3.4c7.1,2.2,13.5,5.9,19.3,11.2c11.7,10.7,17.5,24.7,17.5,42.1
		c0,17.4-6.1,31.5-18.3,42.3c-6.1,5.4-12.5,9.1-19.2,11.2c-6.3,2.1-15.1,3.2-26.6,3.2H328.7z M345.8,206.4h7.7
		c7.7,0,14.1-0.8,19.2-2.4c5.1-1.7,9.7-4.4,13.8-8.1c8.4-7.7,12.6-17.7,12.6-30c0-12.4-4.2-22.5-12.5-30.2
		c-7.5-6.9-18.5-10.3-33.1-10.3h-7.7V206.4z"/>
	<path class="st0" d="M476.2,174.2l35.1,48.3h-20.9L458,176.1h-3.1v46.4h-17.1V109.1h20c15,0,25.8,2.8,32.4,8.4
		c7.3,6.3,11,14.5,11,24.8c0,8-2.3,14.9-6.9,20.7C489.8,168.9,483.8,172.5,476.2,174.2 M454.9,161.2h5.4c16.2,0,24.3-6.2,24.3-18.6
		c0-11.6-7.9-17.4-23.6-17.4h-6.1V161.2z"/>
	<path class="st0" d="M527.8,214.2c0-2.7,1-5.1,3-7.1c2-2,4.4-3,7.2-3c2.8,0,5.2,1,7.2,3c2,2,3,4.4,3,7.2c0,2.8-1,5.3-3,7.3
		c-2,2-4.4,2.9-7.2,2.9c-2.9,0-5.3-1-7.3-2.9C528.7,219.6,527.8,217.2,527.8,214.2"/>
	<path class="st1" d="M638.8,126l-13.9,8.2c-2.6-4.5-5.1-7.4-7.4-8.8c-2.4-1.6-5.6-2.3-9.5-2.3c-4.7,0-8.7,1.3-11.8,4
		c-3.1,2.6-4.7,6-4.7,10c0,5.5,4.1,10,12.3,13.4l11.3,4.6c9.2,3.7,15.9,8.3,20.2,13.6c4.3,5.4,6.4,11.9,6.4,19.7
		c0,10.4-3.5,19-10.4,25.8c-7,6.8-15.7,10.3-26.1,10.3c-9.8,0-18-2.9-24.4-8.7c-6.3-5.8-10.3-14-11.8-24.6l17.3-3.8
		c0.8,6.7,2.2,11.3,4.1,13.8c3.5,4.9,8.7,7.3,15.4,7.3c5.3,0,9.8-1.8,13.3-5.4c3.5-3.6,5.3-8.1,5.3-13.6c0-2.2-0.3-4.2-0.9-6.1
		c-0.6-1.8-1.6-3.5-2.9-5.1c-1.3-1.5-3-3-5-4.3c-2.1-1.3-4.5-2.6-7.3-3.9l-10.9-4.6c-15.5-6.6-23.3-16.1-23.3-28.8
		c0-8.5,3.3-15.6,9.8-21.4c6.5-5.8,14.6-8.7,24.3-8.7C621.3,106.9,631.5,113.3,638.8,126"/>
	<path class="st1" d="M727.8,194.9h-48.5l-12.6,27.5h-18.4L704.3,102l54.1,120.4h-18.7L727.8,194.9z M720.8,178.9L704,140.3
		l-17.6,38.5H720.8z"/>
	<polygon class="st1" points="789.6,109.1 789.6,206.4 823,206.4 823,222.5 772.5,222.5 772.5,109.1 	"/>
	<path class="st1" d="M852.8,109.1v68.3c0,9.7,1.6,16.9,4.8,21.4c4.7,6.5,11.4,9.8,20,9.8c8.7,0,15.4-3.3,20.1-9.8
		c3.2-4.4,4.8-11.5,4.8-21.4v-68.3h17.1v73c0,11.9-3.7,21.8-11.2,29.5c-8.4,8.6-18.6,12.9-30.8,12.9c-12.2,0-22.4-4.3-30.8-12.9
		c-7.4-7.7-11.2-17.6-11.2-29.5v-73H852.8z"/>
	<path class="st1" d="M1010.9,126l-13.9,8.2c-2.6-4.5-5.1-7.4-7.4-8.8c-2.4-1.6-5.6-2.3-9.5-2.3c-4.7,0-8.7,1.3-11.8,4
		c-3.1,2.6-4.7,6-4.7,10c0,5.5,4.1,10,12.3,13.4l11.3,4.6c9.2,3.7,15.9,8.3,20.2,13.6c4.3,5.4,6.4,11.9,6.4,19.7
		c0,10.4-3.5,19-10.4,25.8c-7,6.8-15.7,10.3-26.1,10.3c-9.8,0-18-2.9-24.4-8.7c-6.3-5.8-10.3-14-11.8-24.6l17.3-3.8
		c0.8,6.7,2.2,11.3,4.1,13.8c3.5,4.9,8.7,7.3,15.4,7.3c5.3,0,9.8-1.8,13.3-5.4c3.5-3.6,5.3-8.1,5.3-13.6c0-2.2-0.3-4.2-0.9-6.1
		c-0.6-1.8-1.6-3.5-2.9-5.1c-1.3-1.5-3-3-5-4.3c-2.1-1.3-4.5-2.6-7.3-3.9l-10.9-4.6c-15.5-6.6-23.3-16.1-23.3-28.8
		c0-8.5,3.3-15.6,9.8-21.4c6.5-5.8,14.6-8.7,24.3-8.7C993.3,106.9,1003.5,113.3,1010.9,126"/>
	<path class="st0" d="M183.2,58.8c-48.6,5.2-40,54.1-40,54.1s-49.5-3.8-50,45c-0.5,48.9,64.8,63.3,141.7,38.1
		C251.1,111.2,231.8,53.5,183.2,58.8"/>
	<path class="st1" d="M309.8,238.7l-19.2-17.5c2-21.7,2-75,1.9-104.2c0-6.4-3.9-11.7-9.2-14.2c-2.7-22.5-8-43.6-17.5-58.3
		c-15.2-23.5-37.7-36.9-61.7-36.8c-17.2,0.1-33.7,7-46.7,19.2c-1.3-0.4-2.6-0.6-4-0.5c-3,0.1-5.9,1.4-8,3.8l-6,6.6
		c-2.2,2.4-3.1,5.4-3,8.4c0.1,2,0.8,4,1.9,5.7c0.5,0.8,1.2,1.6,1.9,2.4c4.8,4.3,12.1,4,16.4-0.8l6-6.6c3.4-3.7,3.8-9,1.7-13.2
		c8.3-7.5,18.1-12.6,28.5-14.8c3.7-0.8,7.6-1.2,11.4-1.2c21.3-0.1,40.5,11.6,54.3,32.8c0.4,0.7,0.9,1.4,1.3,2.1
		c0.1,0.2,0.3,0.5,0.4,0.7c0.3,0.5,0.6,1,0.9,1.5c0.2,0.3,0.3,0.6,0.5,0.9c0.3,0.5,0.5,1,0.7,1.5c0.2,0.3,0.3,0.6,0.5,0.9
		c0.2,0.5,0.5,1,0.7,1.5c0.1,0.3,0.3,0.6,0.4,1c0.2,0.5,0.5,1.1,0.7,1.6c0.1,0.3,0.3,0.6,0.4,0.9c0.2,0.6,0.5,1.2,0.7,1.7
		c0.1,0.3,0.2,0.6,0.3,0.9c0.3,0.7,0.5,1.4,0.8,2.1c0.1,0.2,0.1,0.4,0.2,0.5c0.6,1.9,1.2,3.8,1.8,5.7c0,0.2,0.1,0.3,0.1,0.5
		c0.2,0.8,0.5,1.6,0.7,2.5c0.1,0.2,0.1,0.5,0.2,0.7c0.2,0.8,0.4,1.5,0.6,2.3c0.1,0.3,0.1,0.5,0.2,0.8c0.2,0.8,0.4,1.6,0.5,2.3
		c0.1,0.2,0.1,0.5,0.2,0.7c0.2,0.8,0.4,1.7,0.5,2.5c0,0.2,0.1,0.4,0.1,0.6c0.2,0.9,0.4,1.9,0.5,2.8c0,0.1,0,0.2,0.1,0.3
		c0.8,4.1,1.4,8.4,2,12.7c-0.4,0.1-0.9,0.1-1.3,0.3c-6.9,1.8-11.7,7.9-11.8,14.9c-0.5,29-1.7,100.8-1.7,101.3
		c-0.5,0.1-71.9,8.3-100.7,11.5c-7,0.8-12.6,6.2-13.7,13.2c-0.1,0.5-0.1,0.9-0.1,1.4c-4.4-0.1-8.7-0.4-12.9-0.7c-0.1,0-0.2,0-0.3,0
		c-1-0.1-1.9-0.2-2.9-0.3c-0.2,0-0.4,0-0.6-0.1c-0.9-0.1-1.7-0.2-2.5-0.3c-0.2,0-0.5-0.1-0.7-0.1c-0.8-0.1-1.6-0.2-2.4-0.3
		c-0.3,0-0.5-0.1-0.8-0.1c-0.8-0.1-1.6-0.2-2.3-0.4c-0.2,0-0.5-0.1-0.7-0.1c-0.8-0.1-1.7-0.3-2.5-0.4c-0.2,0-0.3-0.1-0.5-0.1
		c-2-0.4-3.9-0.8-5.9-1.2c-0.2,0-0.4-0.1-0.5-0.1c-0.7-0.2-1.5-0.4-2.2-0.6c-0.3-0.1-0.6-0.2-0.9-0.2c-0.6-0.2-1.2-0.3-1.8-0.5
		c-0.3-0.1-0.7-0.2-1-0.3c-0.6-0.2-1.1-0.3-1.6-0.5c-0.3-0.1-0.7-0.2-1-0.3c-0.5-0.2-1-0.4-1.6-0.5c-0.3-0.1-0.7-0.2-1-0.4
		c-0.5-0.2-1-0.4-1.5-0.6c-0.3-0.1-0.6-0.2-0.9-0.4c-0.5-0.2-1.1-0.5-1.6-0.7c-0.2-0.1-0.5-0.2-0.8-0.3c-0.8-0.4-1.5-0.7-2.2-1.1
		C68.7,222,55.3,204,53.3,182.8c-0.1-1.3-0.2-2.6-0.2-3.8c-0.3-13.2,4.1-26.3,12.3-37.5c4.4,1.8,9.6,0.8,13-2.9l6-6.6
		c4.3-4.8,4-12.1-0.8-16.4c-0.3-0.3-0.7-0.5-1-0.7c-0.3-0.2-0.6-0.5-0.9-0.7c-4.7-2.8-10.8-2-14.5,2.2l-6,6.6
		c-1.6,1.8-2.6,3.9-2.9,6.1c-0.3,2.1,0,4.2,0.8,6.1c-10.9,14.2-16.2,31.3-14.6,48.4c2.2,23.9,17.8,45,42.6,57.8
		c15.6,8,37.1,11.3,59.7,11.8c2.9,5,8.6,8.3,15,7.7c29.1-2.7,82.1-7.9,103.6-12l19.2,17.5c7.6,6.9,19.5,6.4,26.4-1.3
		C318,257.5,317.4,245.7,309.8,238.7"/>
</g>
</svg>
