<?xml version="1.0" encoding="utf-8"?>
<!-- Generator: Adobe Illustrator 26.0.1, SVG Export Plug-In . SVG Version: 6.00 Build 0)  -->
<svg version="1.1" id="Layer_1" xmlns="http://www.w3.org/2000/svg" xmlns:xlink="http://www.w3.org/1999/xlink" x="0px" y="0px"
	 viewBox="0 0 1058 279" style="enable-background:new 0 0 1058 279;" xml:space="preserve">
<style type="text/css">
	.st0{fill:#FFFFFF;}
	.st1{fill:#E30613;}
</style>
<g>
	<path class="st0" d="M185.2,265.7v-28.5h12.4c3.1,0,5.5,0.7,7.2,2.2c1.7,1.5,2.5,3.6,2.5,6.3c0,2.1-0.6,3.9-1.7,5.3
		c-1.1,1.4-2.7,2.3-4.8,2.8c1.4,0.4,2.5,1.5,3.4,3.1l4.8,8.8h-5.7l-4.9-9.1c-0.5-0.9-1.1-1.5-1.7-1.8c-0.7-0.3-1.5-0.5-2.5-0.5h-3.8
		v11.4H185.2z M190.4,250.5h6.3c3.8,0,5.7-1.5,5.7-4.6c0-3-1.9-4.6-5.7-4.6h-6.3V250.5z"/>
	<polygon class="st0" points="213,265.7 213,237.2 232,237.2 232,241.3 218,241.3 218,249.2 231.1,249.2 231.1,253.3 218,253.3 
		218,261.6 232,261.6 232,265.7 	"/>
	<polygon class="st0" points="243.8,265.7 243.8,241.5 234,241.5 234,237.2 258.8,237.2 258.8,241.5 249,241.5 249,265.7 	"/>
	<polygon class="st0" points="262.1,265.7 262.1,237.2 281.1,237.2 281.1,241.3 267.1,241.3 267.1,249.2 280.2,249.2 280.2,253.3 
		267.1,253.3 267.1,261.6 281.1,261.6 281.1,265.7 	"/>
	<path class="st0" d="M297.2,265.7v-28.5h10.6c4.8,0,8.5,1.2,11.1,3.7c2.6,2.5,3.9,6,3.9,10.6c0,4.6-1.3,8.1-3.9,10.6
		c-2.6,2.5-6.3,3.7-11.1,3.7H297.2z M302.4,261.5h5.1c6.6,0,9.9-3.3,9.9-10c0-6.6-3.3-10-9.9-10h-5.1V261.5z"/>
	<rect x="328" y="237.2" class="st0" width="5.2" height="28.5"/>
	<path class="st0" d="M353.1,266.1c-3.2,0-5.8-0.6-8-1.8c-2.2-1.2-3.8-2.9-5-5.1c-1.1-2.2-1.7-4.8-1.7-7.8c0-3,0.6-5.6,1.7-7.8
		c1.2-2.2,2.8-3.9,5-5.1c2.2-1.2,4.8-1.8,7.9-1.8c2,0,3.9,0.3,5.6,0.9c1.8,0.6,3.2,1.4,4.4,2.4l-1.7,4c-1.3-1-2.6-1.7-3.9-2.1
		c-1.3-0.4-2.8-0.6-4.4-0.6c-3,0-5.3,0.9-6.9,2.6c-1.6,1.8-2.3,4.3-2.3,7.6c0,3.3,0.8,5.8,2.4,7.6c1.6,1.7,4,2.6,7.1,2.6
		c0.9,0,1.8-0.1,2.7-0.2c0.9-0.1,1.9-0.4,2.8-0.7v-6.6h-6.6v-3.8h10.9V264c-1.3,0.6-2.9,1.2-4.7,1.5
		C356.7,266,354.9,266.1,353.1,266.1"/>
	<rect x="369.2" y="237.2" class="st0" width="5.2" height="28.5"/>
	<polygon class="st0" points="387.4,265.7 387.4,241.5 377.6,241.5 377.6,237.2 402.4,237.2 402.4,241.5 392.6,241.5 392.6,265.7 	
		"/>
	<path class="st0" d="M399.5,265.7l12.9-28.5h4.2l12.9,28.5h-5.3l-2.8-6.6h-13.9l-2.8,6.6H399.5z M414.4,242.8l-5.1,12.2h10.4
		L414.4,242.8L414.4,242.8z"/>
	<polygon class="st0" points="432.6,265.7 432.6,237.2 437.8,237.2 437.8,261.3 451.5,261.3 451.5,265.7 	"/>
	<polygon class="st0" points="455.4,265.7 455.4,237.2 474.4,237.2 474.4,241.3 460.4,241.3 460.4,249.2 473.5,249.2 473.5,253.3 
		460.4,253.3 460.4,261.6 474.4,261.6 474.4,265.7 	"/>
	<path class="st0" d="M490.5,265.7v-28.5h12.4c3.1,0,5.5,0.8,7.2,2.3c1.7,1.6,2.5,3.8,2.5,6.6c0,2.8-0.8,5-2.5,6.6
		c-1.7,1.6-4.1,2.4-7.2,2.4h-7.2v10.7H490.5z M495.7,251h6.4c3.7,0,5.6-1.6,5.6-4.9c0-3.2-1.9-4.8-5.6-4.8h-6.4V251z"/>
	<path class="st0" d="M529.5,266.1c-2.8,0-5.2-0.6-7.2-1.8c-2.1-1.2-3.7-2.9-4.8-5.1s-1.7-4.8-1.7-7.8c0-3,0.6-5.6,1.7-7.8
		c1.1-2.2,2.7-3.9,4.8-5.1c2-1.2,4.5-1.8,7.2-1.8c2.8,0,5.2,0.6,7.2,1.8c2.1,1.2,3.6,2.9,4.8,5.1c1.1,2.2,1.7,4.8,1.7,7.7
		c0,3-0.6,5.6-1.7,7.8c-1.1,2.2-2.7,3.9-4.8,5.1C534.7,265.5,532.2,266.1,529.5,266.1 M529.5,261.7c2.6,0,4.7-0.9,6.1-2.7
		c1.5-1.8,2.2-4.3,2.2-7.5c0-3.2-0.7-5.7-2.2-7.5c-1.4-1.8-3.5-2.7-6.1-2.7c-2.6,0-4.7,0.9-6.1,2.7c-1.5,1.8-2.2,4.3-2.2,7.5
		c0,3.2,0.7,5.7,2.2,7.5C524.8,260.8,526.8,261.7,529.5,261.7"/>
	<polygon class="st0" points="548.4,265.7 548.4,237.2 553.6,237.2 553.6,261.3 567.3,261.3 567.3,265.7 	"/>
	<rect x="571.2" y="237.2" class="st0" width="5.2" height="28.5"/>
	<path class="st0" d="M592.4,266.1c-2.2,0-4.3-0.3-6.2-0.9c-1.9-0.6-3.5-1.4-4.9-2.4l1.6-4.1c1.3,0.9,2.8,1.7,4.4,2.2
		c1.6,0.5,3.3,0.8,5.2,0.8c2.1,0,3.7-0.4,4.7-1.1c1-0.7,1.5-1.6,1.5-2.8c0-0.9-0.3-1.7-1-2.2c-0.7-0.5-1.9-1-3.5-1.3l-4.5-0.9
		c-5.1-1.1-7.6-3.7-7.6-7.8c0-1.8,0.5-3.3,1.4-4.7c0.9-1.3,2.3-2.3,3.9-3.1c1.7-0.7,3.6-1.1,5.8-1.1c1.9,0,3.8,0.3,5.5,0.9
		c1.7,0.6,3.1,1.4,4.2,2.4l-1.6,3.9c-2.2-1.9-5-2.8-8.2-2.8c-1.9,0-3.3,0.4-4.4,1.2c-1.1,0.8-1.6,1.8-1.6,3.1c0,1,0.3,1.7,1,2.3
		c0.6,0.6,1.8,1,3.3,1.4l4.4,0.9c2.7,0.6,4.7,1.5,6,2.7c1.3,1.2,2,2.8,2,4.9c0,1.7-0.5,3.2-1.4,4.5c-0.9,1.3-2.2,2.3-3.9,3
		C596.7,265.8,594.7,266.1,592.4,266.1"/>
	<path class="st0" d="M608.1,265.7v-28.5h12.4c3.1,0,5.5,0.8,7.2,2.3c1.7,1.6,2.5,3.8,2.5,6.6c0,2.8-0.9,5-2.5,6.6
		c-1.7,1.6-4.1,2.4-7.2,2.4h-7.2v10.7H608.1z M613.3,251h6.4c3.7,0,5.6-1.6,5.6-4.9c0-3.2-1.9-4.8-5.6-4.8h-6.4V251z"/>
	<polygon class="st0" points="634.5,265.7 634.5,237.2 653.5,237.2 653.5,241.3 639.5,241.3 639.5,249.2 652.6,249.2 652.6,253.3 
		639.5,253.3 639.5,261.6 653.5,261.6 653.5,265.7 	"/>
	<path class="st0" d="M671.9,266.1c-3,0-5.5-0.6-7.6-1.8c-2.1-1.2-3.7-2.9-4.9-5.1c-1.1-2.2-1.7-4.8-1.7-7.8c0-3,0.6-5.6,1.7-7.8
		c1.1-2.2,2.8-3.9,4.9-5.1c2.1-1.2,4.7-1.8,7.6-1.8c1.9,0,3.7,0.3,5.4,0.9c1.7,0.6,3.1,1.4,4.2,2.6l-1.7,4.1c-1.2-1-2.5-1.8-3.7-2.2
		c-1.3-0.5-2.6-0.7-4.1-0.7c-2.9,0-5.1,0.9-6.6,2.6c-1.5,1.7-2.3,4.2-2.3,7.4c0,3.2,0.8,5.7,2.3,7.4c1.5,1.8,3.7,2.6,6.6,2.6
		c1.5,0,2.8-0.2,4.1-0.7c1.3-0.5,2.5-1.2,3.7-2.2l1.7,4.1c-1.1,1.1-2.5,1.9-4.2,2.5C675.6,265.8,673.8,266.1,671.9,266.1"/>
	<rect x="686.1" y="237.2" class="st0" width="5.2" height="28.5"/>
	<path class="st0" d="M694.4,265.7l12.9-28.5h4.2l12.9,28.5h-5.3l-2.8-6.6h-13.9l-2.8,6.6H694.4z M709.4,242.8l-5.1,12.2h10.4
		L709.4,242.8L709.4,242.8z"/>
	<polygon class="st0" points="727.6,265.7 727.6,237.2 732.8,237.2 732.8,261.3 746.4,261.3 746.4,265.7 	"/>
	<rect x="750.3" y="237.2" class="st0" width="5.2" height="28.5"/>
	<path class="st0" d="M771.5,266.1c-2.2,0-4.3-0.3-6.2-0.9c-1.9-0.6-3.5-1.4-4.9-2.4l1.6-4.1c1.3,0.9,2.8,1.7,4.4,2.2
		c1.6,0.5,3.3,0.8,5.2,0.8c2.1,0,3.7-0.4,4.7-1.1c1-0.7,1.5-1.6,1.5-2.8c0-0.9-0.3-1.7-1-2.2c-0.7-0.5-1.9-1-3.5-1.3l-4.5-0.9
		c-5.1-1.1-7.6-3.7-7.6-7.8c0-1.8,0.5-3.3,1.4-4.7c0.9-1.3,2.3-2.3,3.9-3.1c1.7-0.7,3.6-1.1,5.8-1.1c1.9,0,3.8,0.3,5.5,0.9
		c1.7,0.6,3.1,1.4,4.2,2.4l-1.6,3.9c-2.2-1.9-5-2.8-8.2-2.8c-1.9,0-3.3,0.4-4.4,1.2c-1.1,0.8-1.6,1.8-1.6,3.1c0,1,0.3,1.7,1,2.3
		c0.6,0.6,1.8,1,3.3,1.4l4.4,0.9c2.7,0.6,4.7,1.5,6,2.7c1.3,1.2,2,2.8,2,4.9c0,1.7-0.5,3.2-1.4,4.5c-0.9,1.3-2.2,2.3-3.9,3
		C775.8,265.8,773.8,266.1,771.5,266.1"/>
	<polygon class="st0" points="793.5,265.7 793.5,241.5 783.7,241.5 783.7,237.2 808.5,237.2 808.5,241.5 798.7,241.5 798.7,265.7 	
		"/>
	<rect x="811.8" y="237.2" class="st0" width="5.2" height="28.5"/>
	<path class="st0" d="M836.4,266.1c-3,0-5.5-0.6-7.6-1.8c-2.1-1.2-3.7-2.9-4.9-5.1c-1.1-2.2-1.7-4.8-1.7-7.8c0-3,0.6-5.6,1.7-7.8
		c1.1-2.2,2.8-3.9,4.9-5.1c2.1-1.2,4.7-1.8,7.6-1.8c1.9,0,3.7,0.3,5.4,0.9c1.7,0.6,3.1,1.4,4.2,2.6l-1.7,4.1c-1.2-1-2.5-1.8-3.7-2.2
		c-1.3-0.5-2.6-0.7-4.1-0.7c-2.9,0-5.1,0.9-6.6,2.6c-1.5,1.7-2.3,4.2-2.3,7.4c0,3.2,0.8,5.7,2.3,7.4c1.5,1.8,3.7,2.6,6.6,2.6
		c1.5,0,2.8-0.2,4.1-0.7c1.3-0.5,2.5-1.2,3.7-2.2l1.7,4.1c-1.1,1.1-2.5,1.9-4.2,2.5C840.1,265.8,838.3,266.1,836.4,266.1"/>
	<path class="st0" d="M846.9,265.7l12.9-28.5h4.2l12.9,28.5h-5.3l-2.8-6.6H855l-2.8,6.6H846.9z M861.9,242.8l-5.1,12.2h10.4
		L861.9,242.8L861.9,242.8z"/>
	<path class="st1" d="M381.4,164.1V84.3h16.8c8,0,14.4,0.8,19,2.4c5,1.6,9.5,4.2,13.6,7.9c8.2,7.5,12.4,17.4,12.4,29.6
		c0,12.3-4.3,22.2-12.9,29.8c-4.3,3.8-8.8,6.4-13.5,7.9c-4.4,1.5-10.7,2.2-18.8,2.2H381.4z M393.4,152.8h5.4c5.4,0,9.9-0.6,13.5-1.7
		c3.6-1.2,6.8-3.1,9.7-5.7c5.9-5.4,8.9-12.5,8.9-21.1c0-8.8-2.9-15.9-8.8-21.3c-5.3-4.9-13-7.3-23.3-7.3h-5.4V152.8z"/>
	<path class="st1" d="M485.3,130.1l24.7,34h-14.7l-22.8-32.7h-2.2v32.7h-12V84.3h14.1c10.5,0,18.2,2,22.9,5.9
		c5.2,4.4,7.8,10.2,7.8,17.5c0,5.7-1.6,10.5-4.9,14.6C494.9,126.3,490.6,128.9,485.3,130.1 M470.3,120.9h3.8
		c11.4,0,17.1-4.4,17.1-13.1c0-8.2-5.6-12.3-16.6-12.3h-4.3V120.9z"/>
	<path class="st1" d="M521.6,158.3c0-1.9,0.7-3.6,2.1-5c1.4-1.4,3.1-2.1,5.1-2.1c2,0,3.7,0.7,5.1,2.1c1.4,1.4,2.1,3.1,2.1,5.1
		c0,2-0.7,3.7-2.1,5.1c-1.4,1.4-3.1,2.1-5.1,2.1c-2,0-3.7-0.7-5.1-2.1C522.3,162.1,521.6,160.4,521.6,158.3"/>
	<path class="st0" d="M599.8,96.2l-9.8,5.8c-1.8-3.2-3.6-5.2-5.2-6.2c-1.7-1.1-3.9-1.7-6.7-1.7c-3.3,0-6.1,0.9-8.3,2.8
		c-2.2,1.9-3.3,4.2-3.3,7c0,3.9,2.9,7,8.7,9.4l8,3.3c6.5,2.6,11.2,5.8,14.2,9.6c3,3.8,4.5,8.4,4.5,13.9c0,7.3-2.4,13.4-7.3,18.2
		c-4.9,4.8-11,7.2-18.4,7.2c-6.9,0-12.6-2.1-17.2-6.2c-4.4-4.1-7.2-9.9-8.3-17.3l12.2-2.7c0.6,4.7,1.5,7.9,2.9,9.7
		c2.5,3.4,6.1,5.2,10.9,5.2c3.8,0,6.9-1.3,9.4-3.8c2.5-2.5,3.7-5.7,3.7-9.6c0-1.6-0.2-3-0.6-4.3c-0.4-1.3-1.1-2.5-2-3.6
		c-0.9-1.1-2.1-2.1-3.5-3c-1.4-0.9-3.2-1.9-5.2-2.7l-7.7-3.2c-10.9-4.6-16.4-11.4-16.4-20.3c0-6,2.3-11,6.9-15
		c4.6-4.1,10.3-6.1,17.1-6.1C587.5,82.7,594.7,87.2,599.8,96.2"/>
	<path class="st0" d="M662.5,144.7h-34.2l-8.9,19.4h-13l39.5-84.8l38.1,84.8h-13.2L662.5,144.7z M657.6,133.4l-11.8-27.1l-12.4,27.1
		H657.6z"/>
	<polygon class="st0" points="706.1,84.3 706.1,152.8 729.5,152.8 729.5,164.1 694,164.1 694,84.3 	"/>
	<path class="st0" d="M750.6,84.3v48.1c0,6.9,1.1,11.9,3.4,15c3.3,4.6,8,6.9,14.1,6.9c6.1,0,10.8-2.3,14.2-6.9
		c2.2-3.1,3.4-8.1,3.4-15V84.3h12v51.4c0,8.4-2.6,15.3-7.9,20.8c-5.9,6.1-13.1,9.1-21.7,9.1c-8.6,0-15.8-3-21.7-9.1
		c-5.2-5.4-7.9-12.4-7.9-20.8V84.3H750.6z"/>
	<path class="st0" d="M861.9,96.2l-9.8,5.8c-1.8-3.2-3.6-5.2-5.2-6.2c-1.7-1.1-3.9-1.7-6.7-1.7c-3.3,0-6.1,0.9-8.3,2.8
		c-2.2,1.9-3.3,4.2-3.3,7c0,3.9,2.9,7,8.7,9.4l8,3.3c6.5,2.6,11.2,5.8,14.2,9.6c3,3.8,4.5,8.4,4.5,13.9c0,7.3-2.4,13.4-7.3,18.2
		c-4.9,4.8-11,7.2-18.4,7.2c-6.9,0-12.6-2.1-17.2-6.2c-4.4-4.1-7.2-9.9-8.3-17.3l12.2-2.7c0.6,4.7,1.5,7.9,2.9,9.7
		c2.5,3.4,6.1,5.2,10.9,5.2c3.8,0,6.9-1.3,9.4-3.8c2.5-2.5,3.7-5.7,3.7-9.6c0-1.6-0.2-3-0.6-4.3c-0.4-1.3-1.1-2.5-2-3.6
		c-0.9-1.1-2.1-2.1-3.5-3c-1.4-0.9-3.2-1.9-5.2-2.7l-7.7-3.2c-10.9-4.6-16.4-11.4-16.4-20.3c0-6,2.3-11,6.9-15
		c4.6-4.1,10.3-6.1,17.1-6.1C849.5,82.7,856.7,87.2,861.9,96.2"/>
	<path class="st1" d="M278.9,48.8c-34.2,3.7-28.2,38.1-28.2,38.1s-34.9-2.7-35.2,31.7c-0.4,34.4,45.6,44.6,99.8,26.8
		C326.7,85.8,313.2,45.1,278.9,48.8"/>
	<path class="st0" d="M368.1,175.6l-13.5-12.3c1.4-15.3,1.4-52.8,1.3-73.4c0-4.5-2.7-8.3-6.4-10c-1.9-15.9-5.6-30.7-12.3-41.1
		c-10.7-16.5-26.5-26-43.5-25.9c-12.1,0-23.7,4.9-32.9,13.5c-0.9-0.3-1.9-0.4-2.8-0.4c-2.1,0.1-4.1,1-5.7,2.7l-4.2,4.6
		c-1.5,1.7-2.2,3.8-2.1,5.9c0.1,1.4,0.5,2.8,1.3,4c0.4,0.6,0.8,1.2,1.4,1.7c3.3,3,8.5,2.8,11.6-0.6l4.2-4.6c2.4-2.6,2.7-6.3,1.2-9.3
		c5.9-5.3,12.8-8.9,20.1-10.5c2.6-0.6,5.3-0.8,8-0.9c15-0.1,28.6,8.2,38.2,23.1c0.3,0.5,0.6,1,0.9,1.5c0.1,0.2,0.2,0.3,0.3,0.5
		c0.2,0.4,0.4,0.7,0.6,1.1c0.1,0.2,0.2,0.4,0.3,0.6c0.2,0.3,0.4,0.7,0.5,1c0.1,0.2,0.2,0.4,0.3,0.7c0.2,0.3,0.3,0.7,0.5,1.1
		c0.1,0.2,0.2,0.5,0.3,0.7c0.2,0.4,0.3,0.7,0.5,1.1c0.1,0.2,0.2,0.4,0.3,0.7c0.2,0.4,0.3,0.8,0.5,1.2c0.1,0.2,0.2,0.4,0.2,0.6
		c0.2,0.5,0.4,1,0.5,1.5c0,0.1,0.1,0.3,0.1,0.4c0.4,1.3,0.9,2.6,1.3,4c0,0.1,0.1,0.2,0.1,0.3c0.2,0.6,0.3,1.1,0.5,1.7
		c0,0.2,0.1,0.3,0.1,0.5c0.1,0.5,0.3,1.1,0.4,1.6c0,0.2,0.1,0.4,0.1,0.5c0.1,0.5,0.3,1.1,0.4,1.6c0,0.2,0.1,0.3,0.1,0.5
		c0.1,0.6,0.3,1.2,0.4,1.8c0,0.1,0.1,0.3,0.1,0.4c0.1,0.7,0.3,1.3,0.4,2c0,0.1,0,0.1,0,0.2c0.5,2.9,1,5.9,1.4,9
		c-0.3,0.1-0.6,0.1-0.9,0.2c-4.8,1.2-8.2,5.5-8.3,10.5c-0.3,20.4-1.2,71-1.2,71.4c-0.4,0.1-50.6,5.8-70.9,8.1
		c-5,0.6-8.9,4.4-9.7,9.3c0,0.3-0.1,0.6-0.1,1c-3.1-0.1-6.1-0.3-9.1-0.5c-0.1,0-0.1,0-0.2,0c-0.7-0.1-1.4-0.1-2-0.2
		c-0.1,0-0.3,0-0.4,0c-0.6-0.1-1.2-0.1-1.8-0.2c-0.2,0-0.3,0-0.5-0.1c-0.6-0.1-1.1-0.1-1.7-0.2c-0.2,0-0.4-0.1-0.5-0.1
		c-0.6-0.1-1.1-0.2-1.7-0.3c-0.2,0-0.3-0.1-0.5-0.1c-0.6-0.1-1.2-0.2-1.8-0.3c-0.1,0-0.2,0-0.3-0.1c-1.4-0.3-2.8-0.5-4.1-0.9
		c-0.1,0-0.3-0.1-0.4-0.1c-0.5-0.1-1-0.3-1.6-0.4c-0.2-0.1-0.4-0.1-0.6-0.2c-0.4-0.1-0.9-0.2-1.3-0.4c-0.2-0.1-0.5-0.1-0.7-0.2
		c-0.4-0.1-0.8-0.2-1.2-0.4c-0.2-0.1-0.5-0.2-0.7-0.2c-0.4-0.1-0.7-0.3-1.1-0.4c-0.2-0.1-0.5-0.2-0.7-0.3c-0.4-0.1-0.7-0.3-1.1-0.4
		c-0.2-0.1-0.4-0.2-0.6-0.3c-0.4-0.2-0.8-0.3-1.1-0.5c-0.2-0.1-0.4-0.2-0.5-0.2c-0.5-0.2-1.1-0.5-1.6-0.8
		c-15.8-8.2-25.3-20.9-26.7-35.8c-0.1-0.9-0.1-1.8-0.2-2.7c-0.2-9.3,2.9-18.5,8.7-26.4c3.1,1.3,6.8,0.6,9.1-2.1l4.2-4.6
		c3-3.3,2.8-8.5-0.6-11.6c-0.2-0.2-0.5-0.3-0.7-0.5c-0.2-0.2-0.4-0.3-0.6-0.5c-3.3-1.9-7.6-1.4-10.2,1.5l-4.2,4.6
		c-1.1,1.3-1.8,2.8-2,4.3c-0.2,1.5,0,3,0.6,4.3c-7.6,10-11.4,22-10.3,34.1c1.6,16.9,12.5,31.7,30,40.7c11,5.7,26.1,7.9,42.1,8.3
		c2.1,3.5,6.1,5.9,10.6,5.4c20.5-1.9,57.8-5.6,72.9-8.4l13.5,12.3c5.4,4.9,13.7,4.5,18.6-0.9C373.8,188.8,373.4,180.4,368.1,175.6"
		/>
</g>
</svg>
