<?xml version="1.0" encoding="utf-8"?>
<!-- Generator: Adobe Illustrator 26.0.1, SVG Export Plug-In . SVG Version: 6.00 Build 0)  -->
<svg version="1.1" id="Layer_1" xmlns="http://www.w3.org/2000/svg" xmlns:xlink="http://www.w3.org/1999/xlink" x="0px" y="0px"
	 viewBox="0 0 1058 279" style="enable-background:new 0 0 1058 279;" xml:space="preserve">
<style type="text/css">
	.st0{fill:#29235C;}
	.st1{fill:#E30613;}
	.st2{fill:#1E72B8;}
</style>
<g>
	<path class="st0" d="M194.7,262.3v-27.7h12c3,0,5.4,0.7,7,2.2c1.7,1.5,2.5,3.5,2.5,6.1c0,2.1-0.5,3.8-1.6,5.1
		c-1.1,1.4-2.6,2.3-4.6,2.7c1.3,0.4,2.4,1.4,3.3,3l4.6,8.5h-5.6l-4.8-8.9c-0.5-0.9-1-1.5-1.7-1.8c-0.6-0.3-1.5-0.5-2.5-0.5h-3.7
		v11.1H194.7z M199.7,247.4h6.1c3.7,0,5.5-1.5,5.5-4.5c0-3-1.8-4.4-5.5-4.4h-6.1V247.4z"/>
	<polygon class="st0" points="221.7,262.3 221.7,234.5 240.1,234.5 240.1,238.5 226.5,238.5 226.5,246.2 239.3,246.2 239.3,250.2 
		226.5,250.2 226.5,258.3 240.1,258.3 240.1,262.3 	"/>
	<polygon class="st0" points="251.7,262.3 251.7,238.7 242.2,238.7 242.2,234.5 266.2,234.5 266.2,238.7 256.7,238.7 256.7,262.3 	
		"/>
	<polygon class="st0" points="269.4,262.3 269.4,234.5 287.9,234.5 287.9,238.5 274.3,238.5 274.3,246.2 287,246.2 287,250.2 
		274.3,250.2 274.3,258.3 287.9,258.3 287.9,262.3 	"/>
	<path class="st0" d="M303.6,262.3v-27.7h10.3c4.6,0,8.2,1.2,10.8,3.6c2.5,2.4,3.8,5.8,3.8,10.3c0,4.4-1.3,7.9-3.8,10.3
		c-2.5,2.4-6.1,3.6-10.8,3.6H303.6z M308.6,258.1h5c6.4,0,9.6-3.2,9.6-9.7c0-6.5-3.2-9.7-9.6-9.7h-5V258.1z"/>
	<rect x="333.5" y="234.5" class="st0" width="5" height="27.7"/>
	<path class="st0" d="M358,262.7c-3.1,0-5.7-0.6-7.8-1.7c-2.1-1.2-3.7-2.8-4.8-4.9c-1.1-2.1-1.7-4.6-1.7-7.6c0-2.9,0.6-5.5,1.7-7.6
		c1.1-2.1,2.8-3.8,4.9-5c2.1-1.2,4.7-1.8,7.6-1.8c1.9,0,3.8,0.3,5.5,0.8c1.7,0.6,3.1,1.3,4.3,2.3l-1.7,3.9c-1.2-1-2.5-1.7-3.8-2.1
		c-1.3-0.4-2.7-0.6-4.3-0.6c-2.9,0-5.2,0.9-6.7,2.6c-1.5,1.7-2.3,4.2-2.3,7.4c0,3.2,0.8,5.7,2.3,7.4c1.5,1.7,3.8,2.5,6.9,2.5
		c0.9,0,1.8-0.1,2.7-0.2c0.9-0.1,1.8-0.4,2.7-0.6V251h-6.4v-3.7h10.6v13.3c-1.3,0.6-2.8,1.1-4.6,1.5S359.7,262.7,358,262.7"/>
	<rect x="373.6" y="234.5" class="st0" width="5" height="27.7"/>
	<polygon class="st0" points="391.3,262.3 391.3,238.7 381.8,238.7 381.8,234.5 405.9,234.5 405.9,238.7 396.4,238.7 396.4,262.3 	
		"/>
	<path class="st0" d="M403,262.3l12.6-27.7h4.1l12.6,27.7h-5.1l-2.8-6.4h-13.5l-2.7,6.4H403z M417.6,240l-5,11.8h10.1L417.6,240
		L417.6,240z"/>
	<polygon class="st0" points="435.3,262.3 435.3,234.5 440.3,234.5 440.3,258 453.6,258 453.6,262.3 	"/>
	<polygon class="st0" points="457.4,262.3 457.4,234.5 475.9,234.5 475.9,238.5 462.3,238.5 462.3,246.2 475,246.2 475,250.2 
		462.3,250.2 462.3,258.3 475.9,258.3 475.9,262.3 	"/>
	<path class="st0" d="M491.5,262.3v-27.7h12c3,0,5.4,0.8,7,2.3c1.7,1.5,2.5,3.6,2.5,6.4c0,2.7-0.8,4.9-2.5,6.4c-1.7,1.5-4,2.3-7,2.3
		h-7v10.4H491.5z M496.6,247.9h6.2c3.6,0,5.4-1.6,5.4-4.7c0-3.1-1.8-4.7-5.4-4.7h-6.2V247.9z"/>
	<path class="st0" d="M529.4,262.7c-2.7,0-5-0.6-7-1.8c-2-1.2-3.6-2.8-4.7-5c-1.1-2.1-1.7-4.7-1.7-7.5c0-2.9,0.6-5.4,1.7-7.6
		c1.1-2.1,2.6-3.8,4.6-4.9c2-1.2,4.3-1.8,7-1.8c2.7,0,5.1,0.6,7,1.8c2,1.2,3.5,2.8,4.6,4.9c1.1,2.1,1.7,4.6,1.7,7.5
		c0,2.9-0.6,5.4-1.7,7.6c-1.1,2.1-2.7,3.8-4.6,5C534.5,262.1,532.1,262.7,529.4,262.7 M529.4,258.3c2.5,0,4.5-0.9,5.9-2.6
		c1.4-1.8,2.1-4.2,2.1-7.3c0-3.1-0.7-5.6-2.1-7.3c-1.4-1.7-3.4-2.6-6-2.6c-2.5,0-4.5,0.9-5.9,2.6c-1.4,1.7-2.1,4.2-2.1,7.3
		c0,3.1,0.7,5.6,2.1,7.3C524.9,257.5,526.9,258.3,529.4,258.3"/>
	<polygon class="st0" points="547.9,262.3 547.9,234.5 552.9,234.5 552.9,258 566.2,258 566.2,262.3 	"/>
	<rect x="570" y="234.5" class="st0" width="5" height="27.7"/>
	<path class="st0" d="M590.6,262.7c-2.2,0-4.2-0.3-6.1-0.8c-1.9-0.6-3.4-1.3-4.7-2.3l1.5-4c1.3,0.9,2.7,1.6,4.2,2.1
		c1.5,0.5,3.2,0.7,5,0.7c2.1,0,3.6-0.3,4.5-1s1.4-1.6,1.4-2.7c0-0.9-0.3-1.6-1-2.2c-0.7-0.5-1.8-1-3.4-1.3l-4.3-0.9
		c-4.9-1-7.4-3.6-7.4-7.6c0-1.7,0.5-3.2,1.4-4.5c0.9-1.3,2.2-2.3,3.8-3c1.6-0.7,3.5-1.1,5.6-1.1c1.9,0,3.7,0.3,5.3,0.8
		c1.7,0.6,3,1.4,4.1,2.4l-1.5,3.8c-2.2-1.8-4.8-2.8-8-2.8c-1.8,0-3.2,0.4-4.3,1.1c-1,0.8-1.5,1.8-1.5,3c0,0.9,0.3,1.7,0.9,2.3
		c0.6,0.6,1.7,1,3.2,1.3l4.3,0.9c2.6,0.6,4.5,1.4,5.8,2.6c1.3,1.2,1.9,2.8,1.9,4.7c0,1.7-0.4,3.1-1.3,4.4c-0.9,1.3-2.2,2.2-3.8,2.9
		C594.8,262.3,592.9,262.7,590.6,262.7"/>
	<path class="st0" d="M605.9,262.3v-27.7h12c3,0,5.4,0.8,7,2.3c1.7,1.5,2.5,3.6,2.5,6.4c0,2.7-0.8,4.9-2.5,6.4c-1.7,1.5-4,2.3-7,2.3
		h-7v10.4H605.9z M611,247.9h6.2c3.6,0,5.4-1.6,5.4-4.7c0-3.1-1.8-4.7-5.4-4.7H611V247.9z"/>
	<polygon class="st0" points="631.6,262.3 631.6,234.5 650,234.5 650,238.5 636.4,238.5 636.4,246.2 649.2,246.2 649.2,250.2 
		636.4,250.2 636.4,258.3 650,258.3 650,262.3 	"/>
	<path class="st0" d="M668,262.7c-2.9,0-5.4-0.6-7.4-1.8c-2.1-1.2-3.6-2.8-4.7-5s-1.7-4.7-1.7-7.6c0-2.9,0.6-5.4,1.7-7.6
		c1.1-2.1,2.7-3.8,4.7-4.9c2.1-1.2,4.5-1.8,7.4-1.8c1.9,0,3.6,0.3,5.3,0.9c1.7,0.6,3,1.4,4.1,2.5l-1.7,4c-1.2-1-2.4-1.7-3.6-2.2
		c-1.2-0.5-2.6-0.7-4-0.7c-2.8,0-4.9,0.8-6.4,2.5c-1.5,1.7-2.2,4.1-2.2,7.2c0,3.1,0.7,5.5,2.2,7.2c1.5,1.7,3.6,2.6,6.4,2.6
		c1.4,0,2.7-0.2,4-0.7c1.2-0.5,2.4-1.2,3.6-2.2l1.7,4c-1.1,1.1-2.4,1.9-4.1,2.5C671.6,262.4,669.8,262.7,668,262.7"/>
	<rect x="681.8" y="234.5" class="st0" width="5" height="27.7"/>
	<path class="st0" d="M689.8,262.3l12.6-27.7h4.1l12.6,27.7H714l-2.8-6.4h-13.5l-2.7,6.4H689.8z M704.4,240l-5,11.8h10.1L704.4,240
		L704.4,240z"/>
	<polygon class="st0" points="722.1,262.3 722.1,234.5 727.1,234.5 727.1,258 740.5,258 740.5,262.3 	"/>
	<rect x="744.2" y="234.5" class="st0" width="5" height="27.7"/>
	<path class="st0" d="M764.9,262.7c-2.2,0-4.2-0.3-6.1-0.8c-1.9-0.6-3.4-1.3-4.7-2.3l1.5-4c1.3,0.9,2.7,1.6,4.2,2.1
		c1.5,0.5,3.2,0.7,5,0.7c2.1,0,3.6-0.3,4.5-1c0.9-0.7,1.4-1.6,1.4-2.7c0-0.9-0.3-1.6-1-2.2c-0.7-0.5-1.8-1-3.4-1.3l-4.3-0.9
		c-4.9-1-7.4-3.6-7.4-7.6c0-1.7,0.5-3.2,1.4-4.5c0.9-1.3,2.2-2.3,3.8-3c1.6-0.7,3.5-1.1,5.6-1.1c1.9,0,3.7,0.3,5.3,0.8
		c1.7,0.6,3,1.4,4.1,2.4l-1.5,3.8c-2.2-1.8-4.8-2.8-8-2.8c-1.8,0-3.2,0.4-4.3,1.1c-1,0.8-1.5,1.8-1.5,3c0,0.9,0.3,1.7,0.9,2.3
		c0.6,0.6,1.7,1,3.2,1.3l4.3,0.9c2.6,0.6,4.5,1.4,5.8,2.6c1.3,1.2,1.9,2.8,1.9,4.7c0,1.7-0.4,3.1-1.3,4.4c-0.9,1.3-2.2,2.2-3.8,2.9
		C769,262.3,767.1,262.7,764.9,262.7"/>
	<polygon class="st0" points="786.2,262.3 786.2,238.7 776.7,238.7 776.7,234.5 800.8,234.5 800.8,238.7 791.3,238.7 791.3,262.3 	
		"/>
	<rect x="804" y="234.5" class="st0" width="5" height="27.7"/>
	<path class="st0" d="M828,262.7c-2.9,0-5.4-0.6-7.4-1.8c-2.1-1.2-3.6-2.8-4.7-5s-1.7-4.7-1.7-7.6c0-2.9,0.6-5.4,1.7-7.6
		c1.1-2.1,2.7-3.8,4.7-4.9c2.1-1.2,4.5-1.8,7.4-1.8c1.9,0,3.6,0.3,5.3,0.9c1.7,0.6,3,1.4,4.1,2.5l-1.7,4c-1.2-1-2.4-1.7-3.6-2.2
		c-1.2-0.5-2.6-0.7-4-0.7c-2.8,0-4.9,0.8-6.4,2.5c-1.5,1.7-2.2,4.1-2.2,7.2c0,3.1,0.7,5.5,2.2,7.2c1.5,1.7,3.6,2.6,6.4,2.6
		c1.4,0,2.7-0.2,4-0.7c1.2-0.5,2.4-1.2,3.6-2.2l1.7,4c-1.1,1.1-2.4,1.9-4.1,2.5C831.6,262.4,829.8,262.7,828,262.7"/>
	<path class="st0" d="M838.2,262.3l12.6-27.7h4.1l12.6,27.7h-5.1l-2.8-6.4H846l-2.7,6.4H838.2z M852.7,240l-5,11.8h10.1L852.7,240
		L852.7,240z"/>
	<path class="st1" d="M385.5,163.4V85.8h16.3c7.8,0,14,0.8,18.5,2.3c4.9,1.5,9.3,4.1,13.2,7.7c8,7.3,12,16.9,12,28.8
		c0,11.9-4.2,21.6-12.5,29c-4.2,3.7-8.6,6.3-13.2,7.7c-4.3,1.4-10.4,2.2-18.3,2.2H385.5z M397.2,152.4h5.3c5.3,0,9.6-0.6,13.1-1.7
		c3.5-1.2,6.6-3,9.5-5.6c5.8-5.3,8.6-12.1,8.6-20.6c0-8.5-2.8-15.4-8.5-20.7c-5.1-4.7-12.7-7.1-22.7-7.1h-5.3V152.4z"/>
	<path class="st1" d="M486.5,130.3l24,33.1h-14.3L474,131.7h-2.1v31.8h-11.7V85.8h13.7c10.3,0,17.7,1.9,22.2,5.8
		c5,4.3,7.5,10,7.5,17c0,5.5-1.6,10.2-4.7,14.2C495.8,126.7,491.7,129.2,486.5,130.3 M471.9,121.4h3.7c11.1,0,16.6-4.2,16.6-12.7
		c0-7.9-5.4-11.9-16.2-11.9h-4.2V121.4z"/>
	<path class="st1" d="M521.8,157.8c0-1.9,0.7-3.5,2.1-4.9c1.4-1.4,3-2.1,4.9-2.1c1.9,0,3.6,0.7,4.9,2.1c1.4,1.4,2.1,3,2.1,4.9
		c0,1.9-0.7,3.6-2.1,5c-1.3,1.3-3,2-4.9,2c-2,0-3.6-0.7-5-2C522.5,161.5,521.8,159.8,521.8,157.8"/>
	<path class="st2" d="M597.9,97.4l-9.5,5.6c-1.8-3.1-3.5-5.1-5.1-6c-1.7-1.1-3.8-1.6-6.5-1.6c-3.3,0-6,0.9-8.1,2.8
		c-2.1,1.8-3.2,4.1-3.2,6.8c0,3.8,2.8,6.8,8.4,9.2l7.7,3.2c6.3,2.5,10.9,5.7,13.8,9.3c2.9,3.7,4.4,8.2,4.4,13.5
		c0,7.1-2.4,13-7.1,17.7c-4.8,4.7-10.7,7-17.8,7c-6.7,0-12.3-2-16.7-6c-4.3-4-7-9.6-8.1-16.8l11.9-2.6c0.5,4.6,1.5,7.7,2.8,9.5
		c2.4,3.4,5.9,5,10.6,5c3.7,0,6.7-1.2,9.1-3.7c2.4-2.4,3.6-5.5,3.6-9.3c0-1.5-0.2-2.9-0.6-4.1s-1.1-2.4-2-3.5s-2-2-3.4-3
		c-1.4-0.9-3.1-1.8-5-2.6l-7.5-3.1c-10.6-4.5-15.9-11.1-15.9-19.7c0-5.8,2.2-10.7,6.7-14.6c4.5-4,10-5.9,16.6-5.9
		C585.9,84.3,592.8,88.6,597.9,97.4"/>
	<path class="st2" d="M658.8,144.6h-33.2l-8.6,18.9h-12.6l38.4-82.5l37.1,82.5H667L658.8,144.6z M654,133.6l-11.5-26.4l-12.1,26.4
		H654z"/>
	<polygon class="st2" points="701.2,85.8 701.2,152.4 724,152.4 724,163.4 689.5,163.4 689.5,85.8 	"/>
	<path class="st2" d="M744.5,85.8v46.8c0,6.7,1.1,11.5,3.3,14.6c3.3,4.5,7.8,6.7,13.7,6.7c5.9,0,10.5-2.2,13.8-6.7
		c2.2-3,3.3-7.9,3.3-14.6V85.8h11.7v50c0,8.2-2.5,14.9-7.6,20.2c-5.7,5.9-12.8,8.9-21.1,8.9c-8.3,0-15.4-2.9-21.1-8.9
		c-5.1-5.3-7.6-12-7.6-20.2v-50H744.5z"/>
	<path class="st2" d="M852.7,97.4l-9.5,5.6c-1.8-3.1-3.5-5.1-5.1-6c-1.7-1.1-3.8-1.6-6.5-1.6c-3.3,0-6,0.9-8.1,2.8
		c-2.1,1.8-3.2,4.1-3.2,6.8c0,3.8,2.8,6.8,8.4,9.2l7.7,3.2c6.3,2.5,10.9,5.7,13.8,9.3c2.9,3.7,4.4,8.2,4.4,13.5
		c0,7.1-2.4,13-7.1,17.7c-4.8,4.7-10.7,7-17.8,7c-6.7,0-12.3-2-16.7-6c-4.3-4-7-9.6-8.1-16.8l11.9-2.6c0.5,4.6,1.5,7.7,2.8,9.5
		c2.4,3.4,5.9,5,10.6,5c3.7,0,6.7-1.2,9.1-3.7c2.4-2.4,3.6-5.5,3.6-9.3c0-1.5-0.2-2.9-0.6-4.1s-1.1-2.4-2-3.5s-2-2-3.4-3
		c-1.4-0.9-3.1-1.8-5-2.6l-7.5-3.1c-10.6-4.5-15.9-11.1-15.9-19.7c0-5.8,2.2-10.7,6.7-14.6c4.5-4,10-5.9,16.6-5.9
		C840.7,84.3,847.7,88.6,852.7,97.4"/>
	<path class="st1" d="M285.8,51.3c-33.3,3.6-27.4,37.1-27.4,37.1s-33.9-2.6-34.3,30.9c-0.3,33.5,44.4,43.4,97,26.1
		C332.3,87.2,319.1,47.7,285.8,51.3"/>
	<path class="st2" d="M372.5,174.6l-13.2-12c1.4-14.9,1.4-51.4,1.3-71.4c0-4.4-2.6-8-6.3-9.7c-1.9-15.4-5.5-29.9-12-39.9
		c-10.4-16.1-25.8-25.3-42.3-25.2c-11.8,0-23.1,4.8-32,13.1c-0.9-0.3-1.8-0.4-2.7-0.4c-2,0.1-4,1-5.5,2.6l-4.1,4.5
		c-1.5,1.6-2.2,3.7-2.1,5.7c0.1,1.4,0.5,2.7,1.3,3.9c0.4,0.6,0.8,1.1,1.3,1.6c3.3,3,8.3,2.7,11.2-0.5l4.1-4.5c2.3-2.5,2.6-6.2,1.1-9
		c5.7-5.1,12.4-8.7,19.5-10.2c2.6-0.5,5.2-0.8,7.8-0.8c14.6-0.1,27.8,7.9,37.2,22.5c0.3,0.5,0.6,1,0.9,1.5c0.1,0.2,0.2,0.3,0.3,0.5
		c0.2,0.3,0.4,0.7,0.6,1c0.1,0.2,0.2,0.4,0.3,0.6c0.2,0.3,0.3,0.7,0.5,1c0.1,0.2,0.2,0.4,0.3,0.6c0.2,0.3,0.3,0.7,0.5,1
		c0.1,0.2,0.2,0.4,0.3,0.7c0.2,0.4,0.3,0.7,0.5,1.1c0.1,0.2,0.2,0.4,0.3,0.6c0.2,0.4,0.3,0.8,0.5,1.2c0.1,0.2,0.2,0.4,0.2,0.6
		c0.2,0.5,0.4,1,0.5,1.5c0,0.1,0.1,0.2,0.1,0.4c0.4,1.3,0.8,2.6,1.2,3.9c0,0.1,0.1,0.2,0.1,0.3c0.2,0.6,0.3,1.1,0.5,1.7
		c0,0.2,0.1,0.3,0.1,0.5c0.1,0.5,0.3,1,0.4,1.6c0,0.2,0.1,0.3,0.1,0.5c0.1,0.5,0.2,1.1,0.4,1.6c0,0.2,0.1,0.3,0.1,0.5
		c0.1,0.6,0.2,1.1,0.4,1.7c0,0.1,0.1,0.3,0.1,0.4c0.1,0.6,0.3,1.3,0.4,1.9c0,0.1,0,0.1,0,0.2c0.5,2.8,1,5.8,1.3,8.7
		c-0.3,0.1-0.6,0.1-0.9,0.2c-4.7,1.2-8,5.4-8.1,10.2c-0.3,19.9-1.1,69-1.2,69.4c-0.4,0.1-49.2,5.7-69,7.9c-4.8,0.5-8.7,4.2-9.4,9
		c0,0.3-0.1,0.6-0.1,0.9c-3-0.1-5.9-0.2-8.8-0.5c-0.1,0-0.1,0-0.2,0c-0.7-0.1-1.3-0.1-2-0.2c-0.1,0-0.3,0-0.4,0
		c-0.6-0.1-1.2-0.1-1.7-0.2c-0.2,0-0.3,0-0.5-0.1c-0.5-0.1-1.1-0.1-1.6-0.2c-0.2,0-0.4,0-0.5-0.1c-0.5-0.1-1.1-0.2-1.6-0.2
		c-0.2,0-0.3-0.1-0.5-0.1c-0.6-0.1-1.2-0.2-1.7-0.3c-0.1,0-0.2,0-0.3-0.1c-1.4-0.3-2.7-0.5-4-0.8c-0.1,0-0.2-0.1-0.4-0.1
		c-0.5-0.1-1-0.2-1.5-0.4c-0.2-0.1-0.4-0.1-0.6-0.2c-0.4-0.1-0.8-0.2-1.2-0.3c-0.2-0.1-0.4-0.1-0.7-0.2c-0.4-0.1-0.8-0.2-1.1-0.4
		c-0.2-0.1-0.5-0.2-0.7-0.2c-0.4-0.1-0.7-0.2-1.1-0.4c-0.2-0.1-0.5-0.2-0.7-0.2c-0.4-0.1-0.7-0.3-1-0.4c-0.2-0.1-0.4-0.2-0.6-0.3
		c-0.4-0.2-0.7-0.3-1.1-0.5c-0.2-0.1-0.3-0.2-0.5-0.2c-0.5-0.2-1-0.5-1.5-0.8c-15.4-7.9-24.6-20.3-26-34.8c-0.1-0.9-0.1-1.8-0.2-2.6
		c-0.2-9.1,2.8-18,8.5-25.7c3,1.2,6.6,0.5,8.9-2l4.1-4.5c3-3.3,2.7-8.3-0.5-11.2c-0.2-0.2-0.5-0.3-0.7-0.5c-0.2-0.2-0.4-0.3-0.6-0.5
		c-3.2-1.9-7.4-1.3-10,1.5l-4.1,4.5c-1.1,1.2-1.8,2.7-2,4.2c-0.2,1.4,0,2.9,0.6,4.2c-7.4,9.7-11.1,21.4-10,33.1
		c1.5,16.4,12.2,30.8,29.2,39.6c10.7,5.5,25.4,7.7,40.9,8.1c2,3.4,5.9,5.7,10.3,5.3c20-1.9,56.2-5.4,70.9-8.2l13.2,12
		c5.2,4.8,13.3,4.4,18.1-0.9C378.1,187.4,377.7,179.3,372.5,174.6"/>
</g>
</svg>
